<?xml version="1.0" encoding="UTF-8" standalone="no"?>
<!-- Created with Inkscape (http://www.inkscape.org/) -->

<svg
   width="64mm"
   height="64mm"
   viewBox="0 0 64 64"
   version="1.1"
   id="svg1"
   xmlns:xlink="http://www.w3.org/1999/xlink"
   xmlns="http://www.w3.org/2000/svg"
   xmlns:svg="http://www.w3.org/2000/svg">
  <defs
     id="defs1">
    <linearGradient
       id="linearGradient19">
      <stop
         style="stop-color:#ffcc00;stop-opacity:1;"
         offset="0.82499999"
         id="stop19" />
      <stop
         style="stop-color:#ffcc00;stop-opacity:0;"
         offset="1"
         id="stop20" />
    </linearGradient>
    <linearGradient
       id="linearGradient17">
      <stop
         style="stop-color:#ff0000;stop-opacity:1;"
         offset="0.08281247"
         id="stop17" />
      <stop
         style="stop-color:#ff0000;stop-opacity:0;"
         offset="0.87812501"
         id="stop18" />
    </linearGradient>
    <linearGradient
       id="linearGradient15">
      <stop
         style="stop-color:#ff0000;stop-opacity:1;"
         offset="0.65312499"
         id="stop15" />
      <stop
         style="stop-color:#ff0000;stop-opacity:0;"
         offset="1"
         id="stop16" />
    </linearGradient>
    <linearGradient
       id="linearGradient13">
      <stop
         style="stop-color:#008000;stop-opacity:1;"
         offset="0.85000002"
         id="stop13" />
      <stop
         style="stop-color:#008000;stop-opacity:0;"
         offset="1"
         id="stop14" />
    </linearGradient>
    <linearGradient
       id="linearGradient11">
      <stop
         style="stop-color:#0000ff;stop-opacity:1;"
         offset="0.68906248"
         id="stop11" />
      <stop
         style="stop-color:#0000ff;stop-opacity:0;"
         offset="1"
         id="stop12" />
    </linearGradient>
    <linearGradient
       xlink:href="#linearGradient11"
       id="linearGradient12"
       x1="-73.533806"
       y1="11.262573"
       x2="-27.862892"
       y2="11.262573"
       gradientUnits="userSpaceOnUse" />
    <linearGradient
       xlink:href="#linearGradient13"
       id="linearGradient14"
       x1="-24.024805"
       y1="-31.862558"
       x2="24.283964"
       y2="-31.862558"
       gradientUnits="userSpaceOnUse" />
    <linearGradient
       xlink:href="#linearGradient15"
       id="linearGradient16"
       x1="3.9858036"
       y1="47.092857"
       x2="56.05632"
       y2="47.092857"
       gradientUnits="userSpaceOnUse" />
    <linearGradient
       xlink:href="#linearGradient17"
       id="linearGradient18"
       x1="37.859074"
       y1="45.819675"
       x2="56.3274"
       y2="45.819675"
       gradientUnits="userSpaceOnUse" />
    <linearGradient
       xlink:href="#linearGradient19"
       id="linearGradient20"
       x1="13.29118"
       y1="36.882954"
       x2="44.93327"
       y2="36.882954"
       gradientUnits="userSpaceOnUse" />
  </defs>
  <g
     id="layer1">
    <rect
       style="fill:url(#linearGradient20);stroke-width:0.421591;stroke-linejoin:round"
       id="rect2"
       width="31.642088"
       height="29.753811"
       x="13.29118"
       y="22.006046"
       ry="0" />
    <path
       style="fill:url(#linearGradient16);stroke-width:0.541904;stroke-linejoin:round"
       id="path1"
       d="M 56.056322,44.038368 A 26.035259,16.630888 0 0 1 37.597166,59.949553 26.035259,16.630888 0 0 1 8.3950041,53.298485 26.035259,16.630888 0 0 1 9.8588547,33.51646" />
    <path
       style="fill:url(#linearGradient14);stroke-width:0.521965;stroke-linejoin:round"
       id="path1-8"
       d="m 24.283964,-34.917049 a 24.154385,16.630888 0 0 1 -17.125605,15.911184 24.154385,16.630888 0 0 1 -27.0925,-6.651067 24.154385,16.630888 0 0 1 1.358098,-19.782026"
       transform="rotate(133.73055)" />
    <path
       style="fill:url(#linearGradient12);stroke-width:0.521965;stroke-linejoin:round"
       id="path1-5"
       d="m -27.862892,15.765351 a 24.154385,16.630888 0 0 1 -21.980477,9.070552 24.154385,16.630888 0 0 1 -21.458273,-9.645131 24.154385,16.630888 0 0 1 3.216598,-17.504597"
       transform="rotate(-132.7855)" />
    <path
       id="path2"
       style="fill:url(#linearGradient18);stroke:none;stroke-width:0.541904;stroke-linejoin:round"
       d="m 38.129998,39.955378 6.419101,11.583951 a 24.154385,16.630888 47.2145 0 0 10.008713,-2.035137 26.035259,16.630888 0 0 0 1.498635,-5.465867 z" />
  </g>
</svg>
